<?xml version="1.0" encoding="UTF-8"?>
<svg id="_Слой_1" xmlns="http://www.w3.org/2000/svg" version="1.1" viewBox="0 0 280 50">
  <!-- Generator: Adobe Illustrator 29.8.3, SVG Export Plug-In . SVG Version: 2.1.1 Build 3)  -->
  <defs>
    <style>
      .st0 {
        font-size: 14px;
      }

      .st0, .st1, .st2 {
        fill: #fff;
      }

      .st0, .st2 {
        font-family: Arial-BoldMT, Arial;
        font-weight: 700;
      }

      .st0, .st2, .st3 {
        isolation: isolate;
      }

      .st2 {
        font-size: 11.04px;
      }

      .st4 {
        stroke: #3373cc;
        stroke-width: 2px;
      }

      .st4, .st5 {
        fill: #4c97ff;
      }
    </style>
  </defs>
  <path class="st4" d="M272.11,19.19c0,9.28-9.1,16.81-20.32,16.81H43.04c-11.22,0-20.32-7.52-20.32-16.81S31.82,2.39,43.04,2.39h6.88v5.73h34.41V2.39h167.46c11.22,0,20.32,7.52,20.32,16.8Z"/>
  <g class="st3">
    <text class="st2" transform="translate(28.51 23.58)"><tspan x="0" y="0">переменная</tspan></text>
  </g>
  <path class="st1" d="M108.4,7.61h48.49c6.45,0,11.67,5.19,11.67,11.58h0c0,6.4-5.23,11.58-11.67,11.58h-48.49c-6.45,0-11.67-5.19-11.67-11.58h0c0-6.4,5.23-11.58,11.67-11.58Z"/>
  <g class="st3">
    <text class="st0" transform="translate(172.78 26.1)"><tspan x="0" y="0">=</tspan></text>
  </g>
  <path class="st1" d="M205.39,6.2h40c11.97,0,21.67,5.82,21.67,13h0c0,7.18-9.7,13-21.67,13h-40c-11.97,0-21.67-5.82-21.67-13h0c0-7.18,9.7-13,21.67-13Z"/>
  <rect class="st5" x="48.21" y="34.92" width="37.25" height="8.5"/>
</svg>