<?xml version="1.0" encoding="UTF-8"?>
<svg id="_Слой_1" xmlns="http://www.w3.org/2000/svg" version="1.1" viewBox="0 0 66.8 39.33">
  <!-- Generator: Adobe Illustrator 29.8.3, SVG Export Plug-In . SVG Version: 2.1.1 Build 3)  -->
  <defs>
    <style>
      .st0 {
        stroke: #4c97ff;
        stroke-width: 2px;
      }

      .st0, .st1 {
        fill: #2679be;
      }

      .st2 {
        font-family: MyriadPro-Regular, 'Myriad Pro';
        font-size: 2px;
      }

      .st2, .st3 {
        fill: #fff;
      }

      .st4, .st3 {
        isolation: isolate;
      }

      .st3 {
        font-family: ArialMT, Arial;
        font-size: 2.8px;
      }

      .st5 {
        fill: #4c97ff;
      }
    </style>
  </defs>
  <path class="st0" d="M57.93,25.88v3.93h6.94v.67c0,2.55-1.66,4.63-3.72,4.63H6.16c-2.07,0-3.73-2.07-3.73-4.63V6.42c0-2.55,1.66-4.63,3.73-4.63h5.54v2.73h15.29V1.79h34.16c2.06,0,3.72,2.07,3.72,4.63v19.46h-6.94Z"/>
  <g class="st4">
    <g class="st4">
      <g class="st4">
        <g class="st4">
          <g class="st4">
            <text class="st3" transform="translate(4.56 18.45) scale(.76 1)"><tspan x="0" y="0">Введите массив</tspan></text>
          </g>
        </g>
      </g>
    </g>
  </g>
  <rect class="st5" x="11.7" y="33.76" width="15.29" height="4.77"/>
  <rect class="st1" x="39.22" y="23.13" width="24.64" height="7.69"/>
  <rect class="st5" x="63.86" y="26.88" width="1.97" height="1.97"/>
  <text class="st2" transform="translate(24.83 17.82)"><tspan x="0" y="0">удалить по индексу </tspan><tspan x="0" y="2.4">добавить элемент</tspan></text>
  <text class="st2" transform="translate(46.65 18.88)"><tspan x="0" y="0">элемент|индекс</tspan></text>
</svg>