<svg version="1.2" xmlns="http://www.w3.org/2000/svg" viewBox="0 0 280 50" width="280" height="50">
	<style>
		.s0 { fill: #4c97ff;stroke: #3373cc;stroke-width: 2 } 
		.s1 { fill: #000000 } 
	</style>
	<g id="Layer 1">
		<path class="s0" d="m24 2h226c12.15 0 22 9.85 22 22 0 12.15-9.85 22-22 22h-226c-12.15 0-22-9.85-22-22 0-12.15 9.85-22 22-22z"/>
		<path id="переменная" class="s1" aria-label="переменная"  d="m65.2 19.9h11.3v13.1h-2.2v-11.4h-7v11.4h-2.1zm27.3 6v1.1h-9.9q0.1 2.2 1.3 3.4 1.2 1.1 3.4 1.1 1.2 0 2.4-0.3 1.1-0.3 2.3-0.9v2.1q-1.2 0.4-2.4 0.7-1.2 0.3-2.5 0.3-3.1 0-4.9-1.9-1.9-1.8-1.9-4.9 0-3.2 1.8-5.1 1.7-1.9 4.7-1.9 2.6 0 4.1 1.7 1.6 1.7 1.6 4.6zm-9.9-0.6h7.7q0-1.8-1-2.8-0.9-1.1-2.5-1.1-1.8 0-2.9 1-1.1 1.1-1.3 2.9zm14.7 5.8v6.9h-2.1v-18.1h2.1v2q0.7-1.2 1.8-1.7 1-0.6 2.4-0.6 2.4 0 3.9 1.9 1.5 1.9 1.5 5 0 3.1-1.5 5-1.5 1.9-3.9 1.9-1.4 0-2.4-0.6-1.1-0.6-1.8-1.7zm7.4-4.6q0-2.4-1-3.8-1-1.3-2.7-1.3-1.7 0-2.7 1.3-1 1.4-1 3.8 0 2.4 1 3.7 1 1.4 2.7 1.4 1.7 0 2.7-1.4 1-1.3 1-3.7zm17.8-0.6v1.1h-9.9q0.1 2.2 1.3 3.4 1.2 1.1 3.4 1.1 1.2 0 2.4-0.3 1.1-0.3 2.3-0.9v2.1q-1.2 0.4-2.4 0.7-1.2 0.3-2.5 0.3-3.1 0-4.9-1.9-1.9-1.8-1.9-4.9 0-3.2 1.8-5.1 1.7-1.9 4.7-1.9 2.6 0 4.1 1.7 1.6 1.7 1.6 4.6zm-9.9-0.6h7.7q0-1.8-1-2.8-0.9-1.1-2.5-1.1-1.8 0-2.9 1-1.1 1.1-1.3 2.9zm12.6 7.7v-13.1h3.1l3.8 8.8 3.7-8.8h3.1v13.1h-2.1v-11l-3.7 8.5h-2.1l-3.7-8.5v11zm30.4-7.1v1.1h-10q0.2 2.2 1.4 3.4 1.2 1.1 3.3 1.1 1.3 0 2.4-0.3 1.2-0.3 2.4-0.9v2.1q-1.2 0.4-2.4 0.7-1.2 0.3-2.5 0.3-3.1 0-5-1.9-1.8-1.8-1.8-4.9 0-3.2 1.7-5.1 1.8-1.9 4.7-1.9 2.7 0 4.2 1.7 1.6 1.7 1.6 4.6zm-9.9-0.6h7.7q0-1.8-1-2.8-1-1.1-2.6-1.1-1.8 0-2.8 1-1.1 1.1-1.3 2.9zm12.5 7.7v-13.1h2.2v5.4h7v-5.4h2.2v13.1h-2.2v-6h-7v6zm16 0v-13.1h2.2v5.4h7v-5.4h2.1v13.1h-2.1v-6h-7v6zm24.2-6.6h-2.2q-2.6 0-3.6 0.6-1 0.6-1 2.1 0 1.1 0.8 1.8 0.7 0.7 2 0.7 1.8 0 2.9-1.3 1.1-1.3 1.1-3.4zm2.1-0.9v7.5h-2.1v-2q-0.8 1.2-1.9 1.8-1.1 0.5-2.7 0.5-2 0-3.2-1.1-1.2-1.1-1.2-3 0-2.2 1.5-3.4 1.5-1.1 4.5-1.1h3v-0.2q0-1.5-1-2.3-1-0.8-2.8-0.8-1.1 0-2.1 0.3-1.1 0.2-2.1 0.8v-2q1.2-0.5 2.3-0.7 1.1-0.2 2.2-0.2 2.8 0 4.2 1.4 1.4 1.5 1.4 4.5zm5.9-1.8q0 0.9 0.8 1.5 0.7 0.5 2.1 0.5h2.9v-4.1h-2.9q-1.4 0-2.1 0.5-0.8 0.6-0.8 1.6zm-0.7 9.3h-2.3l4-5.7q-1.4-0.4-2.3-1.1-0.9-0.9-0.9-2.5 0-1.9 1.3-2.9 1.2-0.9 3.8-0.9h5.1v13.1h-2.2v-5.5h-2.6z"/>
	</g>
</svg>