<?xml version="1.0" encoding="UTF-8"?>
<svg id="_Слой_1" xmlns="http://www.w3.org/2000/svg" version="1.1" viewBox="0 0 250 120">
  <!-- Generator: Adobe Illustrator 29.8.3, SVG Export Plug-In . SVG Version: 2.1.1 Build 3)  -->
  <defs>
    <style>
      .st0 {
        fill: #cf8b17;
      }

      .st1 {
        fill: #ffab19;
        stroke: #cf8b17;
        stroke-width: 2px;
      }

      .st2 {
        fill: #fff;
        font-family: MyriadPro-Regular, 'Myriad Pro';
        font-size: 9.99px;
      }
    </style>
  </defs>
  <path class="st1" d="M171.05,75.34v7.43h16.06v1.26c0,4.83-3.86,8.75-8.62,8.75H51.18c-4.77,0-8.62-3.92-8.62-8.75v-45.48c0-4.83,3.85-8.75,8.62-8.75h127.31c4.76,0,8.62,3.92,8.62,8.75v36.79h-16.06Z"/>
  <path class="st0" d="M84.39,60h56c6.63,0,12,5.37,12,12h0c0,6.63-5.37,12-12,12h-56c-6.63,0-12-5.37-12-12h0c0-6.63,5.37-12,12-12Z"/>
  <text class="st2" transform="translate(66.95 49.06) scale(1.09 1)"><tspan x="0" y="0">ПОВТОРЯТЬ ПОКА</tspan></text>
</svg>