<?xml version="1.0" encoding="UTF-8"?>
<svg id="_Слой_1" xmlns="http://www.w3.org/2000/svg" version="1.1" viewBox="0 0 52.5 34.94">
  <!-- Generator: Adobe Illustrator 29.8.3, SVG Export Plug-In . SVG Version: 2.1.1 Build 3)  -->
  <defs>
    <style>
      .st0 {
        fill: #ce8a28;
      }

      .st1 {
        fill: #cf8b17;
      }

      .st2 {
        font-size: 5.41px;
      }

      .st2, .st3 {
        fill: #fff;
        font-family: ArialMT, Arial;
      }

      .st2, .st3, .st4 {
        isolation: isolate;
      }

      .st5 {
        fill: #ffab19;
      }

      .st3 {
        font-size: 5.3px;
      }
    </style>
  </defs>
  <g>
    <path class="st5" d="M51.72,27.83v-2.35h0v-.39h.38v-14.11h-6.68v-3.38h6.68V.37H17.19v2.95H3.84V.37H.31v28.18c0,1.92,1.38,3.48,3.09,3.48h.44v2.66h13.35v-2.66h31.83c1.71,0,3.09-1.56,3.09-3.48v-.5h-.38v-.22h0Z"/>
    <rect class="st0" x="51.72" y="25.48" width=".39" height="2.35"/>
  </g>
  <g class="st4">
    <g class="st4">
      <g class="st4">
        <g class="st4">
          <text class="st2" transform="translate(6.8 13.2) scale(1.09 1)"><tspan x="0" y="0">для</tspan></text>
        </g>
      </g>
    </g>
  </g>
  <g class="st4">
    <g class="st4">
      <g class="st4">
        <g class="st4">
          <text class="st3" transform="translate(1.72 26.15) scale(.94 1)"><tspan x="0" y="0">повторить</tspan></text>
        </g>
      </g>
    </g>
  </g>
  <rect class="st5" x="51.72" y="25.07" width=".39" height="2.98"/>
  <path class="st1" d="M30.73,22.6h11.78c1.4,0,2.52,1.1,2.52,2.47h0c0,1.36-1.13,2.47-2.52,2.47h-11.78c-1.4,0-2.52-1.1-2.52-2.47h0c0-1.36,1.13-2.47,2.52-2.47Z"/>
  <rect class="st5" x="40.55" y="7.27" width="11.56" height="4.18"/>
  <path class="st1" d="M30.73,9.29h11.78c1.4,0,2.52,1.1,2.52,2.47h0c0,1.36-1.13,2.47-2.52,2.47h-11.78c-1.4,0-2.52-1.1-2.52-2.47h0c0-1.36,1.13-2.47,2.52-2.47Z"/>
</svg>