<svg version="1.2" xmlns="http://www.w3.org/2000/svg" viewBox="0 0 280 50" width="280" height="50">
	<style>
		.s0 { fill: #4c97ff;stroke: #3373cc;stroke-width: 2 } 
		.s1 { fill: #ffffff } 
		.s2 { fill: #4c97ff } 
	</style>
	<g id="Layer 1">
		<path class="s0" d="m272.11 19.19c0 9.28-9.1 16.81-20.32 16.81h-208.75c-11.22 0-20.32-7.52-20.32-16.81 0-9.29 9.1-16.8 20.32-16.8h6.88v5.73h34.41v-5.73h167.46c11.22 0 20.32 7.52 20.32 16.8z"/>
		<g>
			<path id="переменная" class="s1" aria-label="переменная"  d="m29.8 18.2h5.1v5.8h-1.5v-4.8h-2.1v4.8h-1.5zm8.3 5.9q-1.3 0-2-0.8-0.7-0.7-0.7-2.2 0-1.5 0.7-2.2 0.8-0.8 2.1-0.8 1.2 0 1.9 0.8 0.6 0.9 0.6 2.5h-3.7q0 0.8 0.3 1.3 0.3 0.4 0.9 0.4 0.8 0 1-0.7l1.5 0.1q-0.7 1.6-2.6 1.6zm0-5.1q-0.5 0-0.8 0.4-0.3 0.4-0.3 1.1h2.3q-0.1-0.8-0.4-1.1-0.3-0.4-0.8-0.4zm9.2 2.1q0 1.4-0.6 2.2-0.6 0.8-1.7 0.8-0.6 0-1-0.2-0.5-0.3-0.7-0.8h-0.1q0.1 0.1 0.1 1v2.2h-1.5v-6.8q0-0.8-0.1-1.3h1.5q0 0.1 0 0.4 0.1 0.3 0.1 0.5 0.5-1 1.8-1 1.1 0 1.6 0.8 0.6 0.7 0.6 2.2zm-1.6 0q0-2-1.2-2-0.6 0-0.9 0.6-0.3 0.5-0.3 1.4 0 1 0.3 1.5 0.3 0.5 0.9 0.5 1.2 0 1.2-2zm5.4 3q-1.3 0-2-0.8-0.7-0.7-0.7-2.2 0-1.5 0.7-2.2 0.8-0.8 2.1-0.8 1.2 0 1.9 0.8 0.6 0.9 0.6 2.5h-3.7q0 0.8 0.3 1.3 0.3 0.4 0.9 0.4 0.8 0 1-0.7l1.5 0.1q-0.7 1.6-2.6 1.6zm0-5.1q-0.5 0-0.8 0.4-0.3 0.4-0.3 1.1h2.3q-0.1-0.8-0.4-1.1-0.3-0.4-0.8-0.4zm9 0.2l-1.4 4.8h-1.2l-1.5-4.7q0.1 0.8 0.1 1.3v3.4h-1.3v-5.8h2l0.9 3q0.3 1 0.4 1.5 0.1-0.6 0.4-1.5l0.9-3h2v5.8h-1.4v-3.4q0-0.5 0.1-1.4zm5 4.9q-1.3 0-2-0.8-0.7-0.7-0.7-2.2 0-1.5 0.7-2.2 0.8-0.8 2.1-0.8 1.2 0 1.9 0.8 0.6 0.9 0.6 2.5h-3.7q0 0.8 0.3 1.3 0.3 0.4 0.9 0.4 0.8 0 1-0.7l1.5 0.1q-0.7 1.6-2.6 1.6zm0-5.1q-0.5 0-0.8 0.4-0.3 0.4-0.3 1.1h2.3q-0.1-0.8-0.4-1.1-0.3-0.4-0.8-0.4zm3.7-0.8h1.5v2.3h2.1v-2.3h1.5v5.8h-1.5v-2.5h-2.1v2.5h-1.5zm7 0h1.5v2.3h2.1v-2.3h1.5v5.8h-1.5v-2.5h-2.1v2.5h-1.5zm8.3 5.9q-0.8 0-1.3-0.4-0.5-0.5-0.5-1.3 0-0.9 0.6-1.4 0.6-0.5 1.7-0.5h1.3v-0.3q0-0.6-0.2-0.8-0.2-0.3-0.7-0.3-0.4 0-0.6 0.2-0.2 0.2-0.2 0.6l-1.6-0.1q0.1-0.8 0.8-1.2 0.6-0.5 1.7-0.5 1.1 0 1.7 0.6 0.6 0.5 0.6 1.5v2.1q0 0.5 0.1 0.7 0.1 0.2 0.4 0.2 0.1 0 0.3-0.1v0.9q-0.1 0-0.3 0-0.1 0-0.2 0.1-0.1 0-0.2 0-0.1 0-0.3 0-0.5 0-0.8-0.3-0.3-0.3-0.3-0.8h-0.1q-0.6 1.1-1.9 1.1zm1.8-2.5v-0.3l-0.8 0.1q-0.5 0-0.8 0.1-0.2 0.1-0.3 0.3-0.1 0.2-0.1 0.5 0 0.4 0.2 0.6 0.2 0.2 0.5 0.2 0.3 0 0.6-0.2 0.3-0.2 0.5-0.5 0.2-0.4 0.2-0.8zm6.2 0.1h-1l-1.5 2.3h-1.6l1.7-2.5q-0.6-0.1-0.9-0.6-0.3-0.4-0.3-1 0-0.8 0.6-1.3 0.7-0.4 1.9-0.4h2.7v5.8h-1.6zm0-0.9v-1.6h-1q-1.1 0-1.1 0.8 0 0.8 1 0.8z"/>
		</g>
		<g>
			<path id="=" class="s1" aria-label="="  d="m180.6 20.2h-7v-1.5h7zm0 3.8h-7v-1.5h7z"/>
		</g>
		<path class="s2" d="m48.21 34.92h37.25v8.5h-37.25z"/>
	</g>
</svg>